:version 1.10
:name ASF
:units
  mass 1
  length 1
  angle deg
:documentation
  ASF file generated by Kaydara
:root
  axis xyz
  order  tx ty tz rx ry rz
  position 0 0 0
  orientation 0 0 0
:bonedata
  begin
    id 1
    name lowerbackDummy
    direction 0 0 0
    length 0
    axis 0 -0 0 xyz
  end
  begin
    id 2
    name lowerback
    direction 0.0149039 0.998517 -0.0523597
    length 4.68464
    axis 0 -0 0 xyz
    dof rx ry rz
    limits( -inf , inf )
( -inf , inf )
( -inf , inf )

  end
  begin
    id 3
    name upperback
    direction -0.00882659 0.999418 -0.0329624
    length 4.68933
    axis 0 -0 0 xyz
    dof rx ry rz
    limits( -inf , inf )
( -inf , inf )
( -inf , inf )

  end
  begin
    id 4
    name thorax
    direction -0.0165585 0.999826 -0.0085833
    length 4.68976
    axis 0 -0 0 xyz
    dof rx ry rz
    limits( -inf , inf )
( -inf , inf )
( -inf , inf )

  end
  begin
    id 5
    name lowerneck
    direction -0.0130877 0.999911 0.00260353
    length 3.85007
    axis 0 -0 0 xyz
    dof rx ry rz
    limits( -inf , inf )
( -inf , inf )
( -inf , inf )

  end
  begin
    id 6
    name upperneck
    direction -0.0348454 0.928205 -0.370435
    length 3.70427
    axis 0 -0 0 xyz
    dof rx ry rz
    limits( -inf , inf )
( -inf , inf )
( -inf , inf )

  end
  begin
    id 7
    name head
    direction 0 0 0
    length 0
    axis 0 0 0 xyz
    dof rx ry rz
    limits( -inf , inf )
( -inf , inf )
( -inf , inf )

  end
  begin
    id 8
    name lclavicle
    direction 0.987582 0.144023 0.0627671
    length 7.76078
    axis 0 -0 0 xyz
    dof rx ry rz
    limits( -inf , inf )
( -inf , inf )
( -inf , inf )

  end
  begin
    id 9
    name lhumerus
    direction 1 -4.48958e-011 -1.45183e-018
    length 12.0426
    axis 180 -30 -90 xyz
    dof rx ry rz
    limits( -inf , inf )
( -inf , inf )
( -inf , inf )

  end
  begin
    id 10
    name lradius
    direction 1 -4.48999e-011 3.74805e-027
    length 5.43051
    axis 180 -30 -90 xyz
    dof rz ry rx
    limits( -inf , inf )
( -inf , inf )
( -inf , inf )

  end
  begin
    id 11
    name lwrist
    direction 1 -4.48988e-011 -4.48237e-017
    length 2.71524
    axis -90 90 0 xyz
    dof rz rx ry
    limits( -inf , inf )
( -inf , inf )
( -inf , inf )

  end
  begin
    id 12
    name lhand
    direction 1 -4.48882e-011 -4.48237e-017
    length 1.61667
    axis -90 90 0 xyz
    dof ry rx rz
    limits( -inf , inf )
( -inf , inf )
( -inf , inf )

  end
  begin
    id 13
    name lfingers
    direction 0 0 0
    length 0
    axis 0 0 0 xyz
    dof rz ry rx
    limits( -inf , inf )
( -inf , inf )
( -inf , inf )

  end
  begin
    id 14
    name lthumb
    direction 0 0 0
    length 0
    axis 0 0 0 xyz
    dof ry rx rz
    limits( -inf , inf )
( -inf , inf )
( -inf , inf )

  end
  begin
    id 15
    name rclavicle
    direction -0.980998 0.169556 0.0943023
    length 7.31716
    axis 0 -0 0 xyz
    dof rx ry rz
    limits( -inf , inf )
( -inf , inf )
( -inf , inf )

  end
  begin
    id 16
    name rhumerus
    direction -1 -1.83355e-005 2.45537e-005
    length 12.4217
    axis 180 30 90 xyz
    dof rx ry rz
    limits( -inf , inf )
( -inf , inf )
( -inf , inf )

  end
  begin
    id 17
    name rradius
    direction -1 -4.48967e-011 0
    length 5.51244
    axis 180 30 90 xyz
    dof rz ry rx
    limits( -inf , inf )
( -inf , inf )
( -inf , inf )

  end
  begin
    id 18
    name rwrist
    direction -1 -4.48964e-011 -4.48237e-017
    length 2.75622
    axis -90 -90 0 xyz
    dof rz rx ry
    limits( -inf , inf )
( -inf , inf )
( -inf , inf )

  end
  begin
    id 19
    name rhand
    direction -1 -4.48882e-011 -4.48237e-017
    length 1.81335
    axis -90 -90 0 xyz
    dof ry rx rz
    limits( -inf , inf )
( -inf , inf )
( -inf , inf )

  end
  begin
    id 20
    name rfingers
    direction 0 0 0
    length 0
    axis 0 0 0 xyz
    dof rz ry rx
    limits( -inf , inf )
( -inf , inf )
( -inf , inf )

  end
  begin
    id 21
    name rthumb
    direction 0 0 0
    length 0
    axis 0 0 0 xyz
    dof ry rx rz
    limits( -inf , inf )
( -inf , inf )
( -inf , inf )

  end
  begin
    id 22
    name rfemurDummy
    direction -0.640058 -0.688614 0.340788
    length 5.51442
    axis 0 -0 0 xyz
  end
  begin
    id 23
    name rfemur
    direction -0.34202 -0.939693 0
    length 14.6194
    axis 0 -0 -20 xyz
    dof rx ry rz
    limits( -inf , inf )
( -inf , inf )
( -inf , inf )

  end
  begin
    id 24
    name rtibia
    direction -0.34202 -0.939693 0
    length 17.7267
    axis 0 -0 -20 xyz
    dof rz ry rx
    limits( -inf , inf )
( -inf , inf )
( -inf , inf )

  end
  begin
    id 25
    name rfoot
    direction -0.0979793 -0.269196 0.958089
    length 4.88571
    axis -90 -7.62852e-016 -20 xyz
    dof ry rx rz
    limits( -inf , inf )
( -inf , inf )
( -inf , inf )

  end
  begin
    id 26
    name rtoes
    direction 0 0 0
    length 0
    axis 0 0 0 xyz
    dof rz ry rx
    limits( -inf , inf )
( -inf , inf )
( -inf , inf )

  end
  begin
    id 27
    name lfemurDummy
    direction 0.653368 -0.678499 0.335782
    length 5.59662
    axis 0 -0 0 xyz
  end
  begin
    id 28
    name lfemur
    direction 0.34202 -0.939693 0
    length 14.6166
    axis 0 -0 20 xyz
    dof rx ry rz
    limits( -inf , inf )
( -inf , inf )
( -inf , inf )

  end
  begin
    id 29
    name ltibia
    direction 0.34202 -0.939693 0
    length 17.6582
    axis 0 -0 20 xyz
    dof rz ry rx
    limits( -inf , inf )
( -inf , inf )
( -inf , inf )

  end
  begin
    id 30
    name lfoot
    direction 0.0811271 -0.222895 0.971461
    length 5.14087
    axis -90 7.62852e-016 20 xyz
    dof ry rx rz
    limits( -inf , inf )
( -inf , inf )
( -inf , inf )

  end
  begin
    id 31
    name ltoes
    direction 0 0 0
    length 0
    axis 0 0 0 xyz
    dof rz ry rx
    limits( -inf , inf )
( -inf , inf )
( -inf , inf )

  end
:hierarchy
  begin
    root lowerbackDummy rfemurDummy lfemurDummy
    lowerbackDummy lowerback
    lowerback upperback
    upperback thorax
    thorax lowerneck lclavicle rclavicle
    lowerneck upperneck
    upperneck head
    lclavicle lhumerus
    lhumerus lradius
    lradius lwrist
    lwrist lhand lthumb
    lhand lfingers
    rclavicle rhumerus
    rhumerus rradius
    rradius rwrist
    rwrist rhand rthumb
    rhand rfingers
    rfemurDummy rfemur
    rfemur rtibia
    rtibia rfoot
    rfoot rtoes
    lfemurDummy lfemur
    lfemur ltibia
    ltibia lfoot
    lfoot ltoes
  end

:SAMPLES-PER-SECOND 30
:FULLY-SPECIFIED
:DEGREES
49
root  1.211097766 36.90022146 -38.98799926 10.01049995 0.2943350077 1.152690053
lowerback  -3.528209925 2.420269966 -2.708699942
upperback  -3.631390095 3.257849932 -2.505660057
thorax  -1.761819959 1.659870028 -0.9961850047
lowerneck  -17.07180023 -2.131920099 -3.07329011
upperneck  35.87149811 -2.197860003 0.4139890075
head  15.5333004 -1.268470049 0.3271969855
lclavicle  0 5.864150125e-015 -2.067359921e-014
lhumerus  -46.98590088 31.20569992 56.44200134
lradius  -3.109326841e-031 -1.673598109e-031 28.29140091
lwrist  -7.062250077e-031 -3.531125038e-031 -2.996200085
lhand  -3.545504188e-031 -5.161930084 19.2548008
lfingers  90 7.125020027 -90
lthumb  91.12098104 2.973495771 69.33310439
rclavicle  0 5.864150125e-015 -2.067359921e-014
rhumerus  -39.78419876 -15.01060009 -74.00370026
rradius  3.217763911e-031 1.454248758e-031 24.32029915
rwrist  7.062250077e-031 -1.765562519e-031 -6.320290089
rhand  -3.535640264e-031 -2.895940065 12.89360046
rfingers  -90 -7.125020027 -90
rthumb  -77.76201159 -26.74461121 -64.26647025
rfemur  -0.6556010246 7.538380146 23.87999916
rtibia  -0 0 35.43370056
rfoot  -0 2.900939941 -17.65089989
rtoes  -0.4128901111 19.99591208 -88.79271119
lfemur  -34.10240173 -8.674570084 -21.50709915
ltibia  -0 0 30.92749977
lfoot  -0 -14.63799953 19.92849922
ltoes  -8.38519572 -18.22302925 -115.2374633
50
root  1.248375543 36.9462231 -38.69288888 10.29870033 0.4947449863 1.260310054
lowerback  -3.686789989 2.398869991 -2.954629898
upperback  -3.784039974 3.236010075 -2.536000013
thorax  -1.84344995 1.65557003 -0.8888189793
lowerneck  -16.54660034 -2.242079973 -3.23300004
upperneck  35.72259903 -2.387870073 0.5769060254
head  15.34689999 -1.348180056 0.396073997
lclavicle  0 5.864150125e-015 -2.067359921e-014
lhumerus  -46.36389923 32.70650101 55.7818985
lradius  -3.143472365e-031 -1.608547645e-031 27.09930038
lwrist  -7.062250077e-031 -3.531125038e-031 -5.075069904
lhand  -3.54011424e-031 -4.083960056 19.78809929
lfingers  90 7.125020027 -90
lthumb  91.32918989 3.340552416 68.28793919
rclavicle  0 5.864150125e-015 -2.067359921e-014
rhumerus  -40.41199875 -15.86540031 -73.37650299
rradius  3.228619631e-031 1.429985774e-031 23.88899994
rwrist  7.062250077e-031 -0 -5.831830025
rhand  -3.53694497e-031 -3.287319899 10.14019966
rfingers  -90 -7.125020027 -90
rthumb  -79.26049907 -24.28728961 -65.24441858
rfemur  -2.574700117 6.737430096 23.53840065
rtibia  -0 0 38.13819885
rfoot  -0 5.522339821 -17.6012001
rtoes  0.07402698335 19.99986861 -90.21644087
lfemur  -33.82210159 -8.634559631 -21.77910042
ltibia  -0 0 30.78829956
lfoot  -0 -14.80809975 19.61630058
ltoes  -8.229976469 -18.29173338 -114.742011
51
root  1.292293372 36.99644494 -38.38044414 10.50549984 0.4278660119 1.324620008
lowerback  -3.811949968 2.522599936 -3.09920001
upperback  -3.920739889 3.404099941 -2.638240099
thorax  -1.918900013 1.743250012 -0.9091950059
lowerneck  -16.25790024 -2.368609905 -3.330650091
upperneck  35.77529907 -2.650919914 0.8322730064
head  15.31770039 -1.436759949 0.4776239991
lclavicle  0 5.864150125e-015 -2.067359921e-014
lhumerus  -45.21900177 31.62220001 57.30789948
lradius  -3.122605452e-031 -1.648690154e-031 27.83340073
lwrist  -1.059337512e-030 -0 -4.173339844
lhand  -7.073163338e-031 -3.183199883 19.24279976
lfingers  90 7.125020027 -90
lthumb  91.1305821 2.722114565 67.43503789
rclavicle  0 5.864150125e-015 -2.067359921e-014
rhumerus  -41.08340073 -16.57139969 -72.98040009
rradius  3.231868288e-031 1.422628345e-031 23.75849915
rwrist  7.062250077e-031 -1.765562519e-031 -5.692140102
rhand  -1.768615176e-031 -3.366839886 9.772489548
rfingers  -90 -7.125020027 -90
rthumb  -79.46646236 -23.95898904 -65.39703624
rfemur  -4.380119801 6.133540154 23.21150017
rtibia  -0 0 40.81940079
rfoot  -0 6.483170033 -18.05279922
rtoes  0.8068128418 19.98438559 -92.35955187
lfemur  -33.38690186 -8.795370102 -21.92620087
ltibia  -0 0 30.63080025
lfoot  -0 -15.3263998 19.75119972
ltoes  -7.637453543 -18.53973666 -112.8665571
52
root  1.349582259 37.03511155 -38.02355669 10.3842001 0.03994489834 1.272989988
lowerback  -3.424779892 2.655420065 -3.038170099
upperback  -4.156740189 3.551189899 -2.721349955
thorax  -2.371809959 1.81885004 -1.05527997
lowerneck  -16.35409927 -2.413259983 -3.453150034
upperneck  36.18659973 -2.813019991 1.18501997
head  15.55519962 -1.472519994 0.6188820004
lclavicle  0 5.864150125e-015 -2.067359921e-014
lhumerus  -44.70230103 31.2670002 57.78469849
lradius  -3.11386334e-031 -1.665142376e-031 28.13570023
lwrist  -7.062250077e-031 -3.531125038e-031 -3.798559904
lhand  -3.536424061e-031 -3.136950016 19.27009964
lfingers  90 7.125020027 -90
lthumb  91.14108335 2.74136316 67.3901954
rclavicle  0 5.864150125e-015 -2.067359921e-014
rhumerus  -41.87939835 -16.62960052 -72.89459991
rradius  3.232543257e-031 1.42109399e-031 23.73130035
rwrist  7.062250077e-031 -0 -5.797699928
rhand  -3.536920105e-031 -3.280299902 12.88949966
rfingers  -90 -7.125020027 -90
rthumb  -77.96758366 -26.77785406 -64.68106099
rfemur  -5.699510098 5.753139973 22.95750046
rtibia  -0 0 43.2901001
rfoot  -0 6.016039848 -17.73520088
rtoes  1.693513696 19.93109746 -94.95696327
lfemur  -32.53129959 -8.613189697 -22.09399986
ltibia  -0 0 30.57480049
lfoot  -0 -15.8380003 19.93009949
ltoes  -3.135934795 -19.76256837 -99.20381469
53
root  1.377520036 37.06710996 -37.74599991 10.70549965 0.4410760105 1.32641995
lowerback  -3.766289949 2.715310097 -3.078850031
upperback  -4.483500004 3.633919954 -2.918639898
thorax  -2.510230064 1.861789942 -1.228600025
lowerneck  -14.81910038 -2.663609982 -3.353889942
upperneck  35.79510117 -3.406260014 1.546030045
head  15.02760029 -1.667739987 0.6672440171
lclavicle  0 5.864150125e-015 -2.067359921e-014
lhumerus  -44.28680038 31.01930046 57.70009995
lradius  -3.119460478e-031 -1.654632999e-031 27.94249916
lwrist  -7.062250077e-031 -3.531125038e-031 -5.141759872
lhand  -3.537183664e-031 -3.353960037 19.1317997
lfingers  90 7.125020027 -90
lthumb  91.08795591 2.640925427 67.60072049
rclavicle  0 5.864150125e-015 -2.067359921e-014
rhumerus  -43.09769821 -17.22960091 -72.57720184
rradius  3.231306884e-031 1.423903037e-031 23.78109932
rwrist  0 -1.765562519e-031 -5.861159801
rhand  -1.767740866e-031 -2.844700098 9.165960312
rfingers  -90 -7.125020027 -90
rthumb  -79.50056657 -23.37241856 -64.95947085
rfemur  -7.614409924 4.732729912 22.7852993
rtibia  -0 0 45.65380096
rfoot  -0 4.467420101 -17.53580093
rtoes  1.965173227 19.90715379 -95.75432432
lfemur  -32.41870117 -8.405900002 -22.3260994
ltibia  -0 0 30.57320023
lfoot  -0 -15.32670021 19.59059906
ltoes  -5.043194213 -19.37895799 -104.8934363
54
root  1.444020046 37.09666635 -37.41022245 10.61590004 0.02823740058 1.007230043
lowerback  -3.986700058 2.5448699 -3.100600004
upperback  -3.980149984 3.441930056 -2.424860001
thorax  -1.896049976 1.765149951 -0.6822040081
lowerneck  -16.10820007 -2.501250029 -3.845370054
upperneck  35.98699951 -2.951800108 1.517320037
head  15.42000008 -1.540169954 0.8061040044
lclavicle  0 5.864150125e-015 -2.067359921e-014
lhumerus  -43.26869965 32.0904007 59.04109955
lradius  -3.0953129e-031 -1.69937697e-031 28.76749992
lwrist  -1.059337512e-030 -3.531125038e-031 -4.581989765
lhand  -3.536315834e-031 -3.104789972 19.20050049
lfingers  90 7.125020027 -90
lthumb  91.11431496 2.673096378 67.36060115
rclavicle  0 5.864150125e-015 -2.067359921e-014
rhumerus  -42.02460098 -16.29240036 -72.90910339
rradius  3.234034593e-031 1.417696826e-031 23.67110062
rwrist  1.412450015e-030 -1.765562519e-031 -5.87071991
rhand  -3.534843574e-031 -2.628309965 8.734629631
rfingers  -90 -7.125020027 -90
rthumb  -79.60039858 -22.96760149 -64.81106025
rfemur  -8.992839813 4.303679943 22.78639984
rtibia  -0 0 47.75579834
rfoot  -0 3.380249977 -16.61619949
rtoes  2.069993763 19.89695418 -96.06224509
lfemur  -31.69420052 -8.242799759 -22.18959999
ltibia  -0 0 30.5821991
lfoot  -0 -16.06069946 19.62800026
ltoes  -5.065579668 -19.37332832 -104.9609094
